<svg version="1" xmlns="http://www.w3.org/2000/svg" width="241pt" height="241pt" viewBox="0 0 241 241"><path d="M82.7 36.4c-.3.8-.9 17.3-1.3 36.7l-.7 35.3-5.5 8.6c-2.9 4.7-8.5 13.1-12.3 18.7-3.8 5.6-6.9 10.7-6.9 11.3 0 .6.9 3.6 2 6.8 1.2 3.1 3.6 11.3 5.6 18.2l3.4 12.5-11 10.7c-6 5.9-11 10.9-11 11.2 0 .4 11.3.6 25 .6h25v-7.3c0-9.5-1.3-15.9-6.6-33.9L84 151l4.4-7.7c2.4-4.3 6-10.8 8-14.6l3.7-6.7h16.7l16.7.1 12.9 21.7 12.9 21.6-.6 7.6c-.5 8.5-3.5 16.5-7.3 20.1-1.7 1.6-2.4 3.3-2.4 6.1v3.8h23c12.7 0 23-.2 23-.5s-2.9-4.2-6.5-8.7l-6.5-8.2v-31.2l-3.6-6c-2-3.2-5.4-8.8-7.4-12.4-2.1-3.6-6.5-10.9-9.8-16.3l-5.9-9.8 6.9-17.2c9.1-22.7 19.1-50.7 18.4-51.5-.3-.3-12-1.1-25.8-1.8-50-2.5-66.3-3.5-68.9-4-1.8-.3-2.8 0-3.2 1zm47.7 17.1c14.8.8 27.1 1.7 27.4 1.9.2.2-2.2 7.1-5.3 15.3-3.1 8.1-6.4 16.7-7.2 19.1-.8 2.4-2.2 4.6-3 4.9-.7.3-10.6.2-21.8-.2l-20.5-.7V82.6c0-16.5 1.1-30.6 2.4-30.6.6 0 13.2.7 28 1.5z"/></svg>