<svg version="1" xmlns="http://www.w3.org/2000/svg" width="241pt" height="241pt" viewBox="0 0 241 241"><path d="M148.6 42.6c-2.5 4.3-4.7 8.1-4.8 8.5-.2.5-57.9 3.9-67.4 3.9-1.7 0-3.1 2.1-7.5 11.7-3 6.5-10.5 22.1-16.6 34.6-6.2 12.5-11.3 23.3-11.3 23.9 0 2.5 35.3 77 38.2 80.5 1.2 1.5 1.7 1.1 27.3-18.1 8.8-6.6 19.3-14.8 23.4-18.2 4.1-3.4 9.5-7.2 12-8.5 5-2.5 4.5-2.6 28.6 2.6 11.8 2.5 28.5 4.4 28.5 3.2 0-.3-1.8-4.8-4-9.8l-4-9.3 3-7.7c1.6-4.3 3-8.4 3-9 0-.9-3.3-1.1-13.2-.6-29.8 1.4-50.3 2.9-52 3.8-1 .6-8.2 6.7-16.1 13.7-7.8 7-16.1 14.2-18.5 16l-4.2 3.4V76h3.8c4 0 40.1-3.3 56.7-5.1 11.9-1.4 14.7-2.9 22.6-12.1 9.6-11.1 12.2-14.8 10.7-15.3-.7-.2-7.8-2-15.8-4s-15.2-3.8-16.1-4.1c-1.2-.3-2.9 1.6-6.3 7.2zM76.8 143l-.3 17-7.7-17.5L61 125l7.8-16.7 7.7-16.6.3 17.2c.1 9.4.1 24.8 0 34.1zm104.2 5.5v7.5l-7.8-4.2c-4.4-2.4-8-4.8-8.2-5.3-.2-.9 11.5-5.2 14.8-5.4.8-.1 1.2 2 1.2 7.4z"/></svg>