<svg version="1" xmlns="http://www.w3.org/2000/svg" width="241pt" height="241pt" viewBox="0 0 241 241"><path d="M178 33.6c0 .9.5 5.6 1.2 10.4l1.1 8.7-6.3 12.4c-4.7 9.3-21.2 40.6-22.5 42.7-.1.1-11.1-.9-24.5-2.3s-25-2.3-25.7-2.1c-.8.3-1.3 2.2-1.3 4.8 0 6.6-.9 8.5-4.3 9.9-7.3 2.8-38.3 17.2-39.3 18.3-1.1 1-2.7 7.9-9 37.9l-2.7 12.8-6.9 7.9c-5.5 6.4-6.5 8-5 8.4 5.9 1.7 36 6.1 36.8 5.3.3-.3-.7-4.5-2.2-9.3-2.6-8.5-2.6-9.3-1.5-16.4 1.6-9.7 6.9-31.2 7.8-32.1 1.3-1.2 23.7-10.7 24.4-10.3.4.2 1.2 3.3 1.9 6.9.7 3.6 1.4 6.5 1.6 6.5 1 0 22.3-10 42-19.8l22.1-11 9.3-17.9c5-9.8 12.4-23.7 16.2-30.8 7-13 7.2-13.1 15-18.5 4.4-3 8.3-6 8.9-6.6.6-.8-1.2-2.1-6.3-4.4-18.9-8.6-29.1-13-29.9-13-.5 0-.9.7-.9 1.6zM128.5 119c6.6.7 12.2 1.3 12.4 1.5.3.4-14.9 8.2-23.4 12l-5.5 2.4v-9c0-8.7 0-8.9 2.3-8.5 1.2.3 7.6 1 14.2 1.6z"/></svg>