<svg version="1" xmlns="http://www.w3.org/2000/svg" width="241pt" height="241pt" viewBox="0 0 241 241"><path d="M26.6 50.9c-1.5 1.7-1.3 4.3 3.5 35.9l5.2 34.1 2.8 1.1c2.6 1.1 4.2.2 32.8-19.5C87.5 91.2 101 81.8 101 81.6c0-1.9-2.5-6.6-3.8-7.1-2.2-.9-48-17.8-59.8-22.1-8.8-3.1-9.3-3.2-10.8-1.5zm34.7 24.6c8.6 3.2 15.7 6.1 15.7 6.4 0 .5-7.3 4.8-23.6 13.8L47.3 99l-2.2-13.7c-2.5-16.1-2.5-16.7-.8-16 .6.2 8.3 3 17 6.2zM152.8 119.4c-1.7 1.2-1.6 3.2 1 36.4 1.5 19.3 3.1 35.4 3.4 35.8 2.5 2.4 6.5-.1 31.5-19.6 24.7-19.2 26.3-20.7 26-23.5-.2-2.9-1.2-3.4-29.7-16.7-16.2-7.6-29.7-13.7-30-13.7-.3 0-1.3.6-2.2 1.3zm28.6 25.3l13.4 6.7-12.7 8.7c-6.9 4.7-12.9 8.4-13.2 8-.7-.7-2-30.1-1.3-30.1.2 0 6.4 3 13.8 6.7z"/></svg>