<svg version="1" xmlns="http://www.w3.org/2000/svg" width="241pt" height="241pt" viewBox="0 0 241 241"><path d="M132.4 37.7c.2 1.6 1 7.5 1.6 13.3.7 5.8 1.6 12.1 2.1 14.1l.9 3.6 12.7.7c7.1.3 15.8.9 19.5 1.2l6.6.6.6 4.7c.3 2.5 1.3 14.3 2.1 26.1s1.7 23.3 2 25.5l.5 4-5.7 2.2c-3.2 1.2-7.9 2.8-10.4 3.4l-4.6 1.2-7.6-5.2c-4.2-2.9-8-5.8-8.5-6.4-.6-.7-2.4-4.7-4.2-9-1.7-4.2-3.8-7.7-4.5-7.7-.7 0-4.4 1.4-8.2 3.1-26.1 11.9-26 11.9-35.4 11.9H83V89c0-35.1 0-36-2-36-2.9 0-32.8 32.5-34 37-.6 1.9-2.1 13.9-3.5 26.6-1.4 12.6-3.4 29.7-4.5 38-2.4 17.9-2.5 21.4-.6 21.4 1.8 0 11-6.8 27.3-20.2L79 145H105.7l2.6 8.8c1.5 4.9 2.7 9.2 2.7 9.7 0 .4-3 .6-6.7.4-11.3-.4-12.5-.2-12.1 2.3.2 1.5 4.5 5 14.3 11.6 7.7 5.3 20.4 13.9 28.3 19.4 7.8 5.4 14.6 9.8 15.1 9.8s1.4-.7 2.1-1.5c1-1.2.1-5.2-5-22l-6.3-20.5h-10.6l-2.6-8.2c-1.4-4.6-2.8-9.1-3.1-10.1-1.1-3.5 3.2-1.5 19.5 9.3l16.7 11 8.9-3.8c5-2.1 14.3-6 20.8-8.7 6.6-2.6 12.1-5.5 12.5-6.3.3-.9-.4-10.3-1.6-21.1-1.2-10.8-3.1-29.1-4.3-40.6-1.1-11.6-2.4-23.4-2.7-26.4l-.7-5.3-19.5-5.9c-16.3-5-40.6-11.9-41.8-11.9-.2 0-.1 1.2.2 2.7zm-60.3 64.8c-.6 12.5-1.1 24.8-1.1 27.4v4.8l-9.6 8.3c-5.2 4.5-9.7 8-9.9 7.8-.2-.2 1-12.5 2.7-27.3l3.1-27 7.5-8.8c4.1-4.8 7.7-8.6 7.9-8.3.2.2 0 10.6-.6 23.1z"/></svg>