<svg version="1" xmlns="http://www.w3.org/2000/svg" width="241pt" height="241pt" viewBox="0 0 241 241"><path d="M58 35.8c0 1.7 10.5 35.6 16.8 54.2 11.7 34.7 38.5 110.6 40.1 113.8l1.7 3.3 8.7-5.6c4.8-3 12.6-8 17.5-11.1 8-5.1 9-5.5 13.2-5 2.5.3 9.3.8 15.3 1.2 9 .6 10.7.4 10.7-.8 0-4.8-5.7-41.8-6.6-42.7-.2-.2-10.8 5.6-23.5 12.8-12.7 7.3-23.2 13.1-23.4 12.9-.1-.2-6.5-16.9-14-37.3-7.6-20.4-16.2-43.5-19.2-51.4-3-7.9-5.2-14.5-5-14.7.2-.2 6.8 1 14.8 2.7 7.9 1.6 18.8 3.9 24.3 5 9.9 1.9 9.9 1.9 20.3 10.2 16.1 12.7 14.3 12.4 14.3 2 0-8.5-1.3-29.7-2.6-41-.6-6.2.4-6.4-14.1 2.9l-9.3 6-8.2-1.7c-4.6-.9-17.5-3.9-28.8-6.6-11.3-2.8-24.8-5.9-30-7-5.2-1.1-10.3-2.2-11.2-2.5-1-.3-1.8-.1-1.8.4z"/></svg>