<svg version="1" xmlns="http://www.w3.org/2000/svg" width="241pt" height="241pt" viewBox="0 0 241 241"><path d="M38.8 37.2c-1.6.5-2.8 1.5-2.8 2.2 0 3.2 4.7 15.2 34.5 87.9 27.3 66.5 32.2 77.7 34.1 78.1 1.8.5 11.4-6.1 48.6-33.5 25.5-18.8 47.1-34.9 48-35.8 1-.9 2-3 2.4-4.6.5-3 .4-3.1-14.1-11.4-8.1-4.6-22.8-12.8-32.8-18.3-10-5.5-26.1-14.6-35.7-20.3-9.6-5.6-29.2-16.7-43.5-24.5-14.3-7.9-28.1-15.8-30.6-17.7-2.6-1.8-4.8-3.3-5-3.2-.2 0-1.6.5-3.1 1.1zm81.5 66.7C146.5 119 168 131.7 168 132c0 .7-54.1 43.2-54.5 42.8-1.2-1.3-42.9-99.6-42-99 .6.4 22.6 13 48.8 28.1z"/></svg>