<svg version="1" xmlns="http://www.w3.org/2000/svg" width="241pt" height="241pt" viewBox="0 0 241 241"><path d="M96.5 50.5c-23.6 8.4-44 16-45.2 16.9-2.9 2.1-2.9 4.6 0 6.7 1.2.9 16.9 11.8 35 24.3 18 12.5 32.7 23.3 32.7 23.9-.1.7-4.3 19.4-9.4 41.7-5.2 22.3-9.1 41-8.9 41.7.3.7 1.3 1.5 2.3 1.8 1.7.5 95.6-31.7 97.3-33.4.9-.9 1.3-5.8.6-6.5-.2-.2-16.1-11.3-35.4-24.6-19.2-13.3-35.4-24.6-35.9-25-.4-.5 3.1-18.6 7.8-40.3 4.8-21.7 8.4-40.2 8-41.1-.4-1-1.7-1.6-3.3-1.5-1.4.1-21.9 7-45.6 15.4zm26.2 10.7c-.2.7-2.2 8.9-4.3 18.1-2.3 10.1-4.2 16.6-4.8 16.4-1.7-.7-28.1-19.8-28.3-20.5-.2-.6 35-15 37.1-15.1.4-.1.6.5.3 1.1zm30.3 93.6l18.1 11.9-24.3 8.5c-13.4 4.7-24.4 8.5-24.5 8.4-.2-.1 10.3-36.9 11.2-39.4.2-.6.7-1.2.9-1.2.3 0 8.6 5.3 18.6 11.8z"/></svg>