<svg version="1" xmlns="http://www.w3.org/2000/svg" width="241pt" height="241pt" viewBox="0 0 241 241"><path d="M182.5 68.3c-6.6.5-12.2 1.1-12.3 1.3-.2.1.6 6.2 1.8 13.4 1.2 7.2 2 13.3 1.8 13.4-.1.2-29.1 1.6-64.3 3.1-44.6 1.9-64.4 3.1-65.3 3.9-.7.7-1.9 5.2-2.8 10.2-1.2 6.9-2.4 10.4-5.5 15.5-2.1 3.6-3.9 7.1-3.9 7.8 0 .7 2.6 7 5.9 14.1 3.2 7.1 5.5 13.2 5.1 13.7-.4.4-1.9 2.9-3.4 5.4l-2.6 4.6 6.5 8.6c5.5 7.3 7 8.7 9.3 8.7 2.5 0 3.2-.9 6.7-7.9l3.8-8 4.6-.5c10.2-1.2 99.5-6.6 109.5-6.6 2.1 0 2.8 1 5.2 7 2.4 6.1 3 7 5.2 7 2.4 0 20-12.2 23-15.8 2.5-3.2 1.3-5.7-5.2-11.1l-6.3-5.3-.5-31.1-.5-31.2 5.3-7.9 5.3-7.9-2.2-2.8c-2.4-3.3-2.9-3.3-24.2-1.6zm-4.7 63.9l-.3 13.3-56.9 4.8c-31.3 2.6-57.1 4.6-57.3 4.4-.2-.3-.6-7.2-1-15.6l-.6-15.1 6.9-.1c3.8 0 26-1.1 49.4-2.3 23.4-1.3 46.5-2.4 51.3-2.5l8.8-.1-.3 13.2z"/></svg>