<svg version="1" xmlns="http://www.w3.org/2000/svg" width="241pt" height="241pt" viewBox="0 0 241 241"><path d="M132.5 60c-11 12.1-20 22.3-20 22.7 0 .4.9 3.8 1.9 7.5l1.9 6.7 8.6-.6c20.5-1.3 39.9 9.4 47.9 26.4 2.4 5.1 2.7 6.9 2.5 14.6-.2 10.8-2.2 18-6.7 23.9-4 5.2-12.4 11.1-21.1 14.8-5.9 2.4-6.5 2.5-26.2 2.2l-20.3-.3V204h24c22.1 0 24.4-.2 29.7-2.2 27.5-10.2 45.4-36.6 45.4-66.8 0-6.3-.6-12.9-1.6-16.5-3.7-14.1-13.3-27.1-26.9-36.3l-7-4.7-5.1-19.5c-2.8-10.6-5.5-19.5-6.1-19.6-.5-.2-9.9 9.6-20.9 21.6zm17.4 12.3c.7 4.3 1.1 8 .9 8.1-.1.2-5.1.6-11 .9l-10.7.5 9.1-9.9c5.9-6.4 9.5-9.4 9.9-8.6.3.6 1.2 4.7 1.8 9zM56.7 154.2c-17 26.1-18.2 28.3-16.7 30.8 1.1 1.8 47.4 4.4 50.4 2.8 2.8-1.5 1.8-5.1-7.9-26.8-9.5-21.6-10.9-24-13-24-.8 0-6.6 7.8-12.8 17.2zm16.2 12.2c2.2 5.2 4.1 9.7 4.1 10 0 .8-18-.4-19.6-1.3-1.2-.6 9-18.1 10.5-18.1.5 0 2.7 4.2 5 9.4z"/></svg>