<svg version="1" xmlns="http://www.w3.org/2000/svg" width="241pt" height="241pt" viewBox="0 0 241 241"><path d="M83.6 42.3c-1.5 1.1-1.5 2 0 11.9 1.6 10.6 1.6 11-.5 22-1.3 6.2-4 18.5-6.2 27.2-2.2 8.8-3.9 17.1-3.7 18.5.4 3.2.5 3.3 36.9 19.4l27.7 12.3-19 10.3-19 10.3-10.2-2.2c-10.3-2.3-13.6-2.2-13.6.2 0 .7 3.1 10.1 6.8 20.8 4.9 14.1 7.2 19.6 8.4 19.8 1.2.2 3.4-2.3 7.5-8.5 3.2-4.8 6.5-9.3 7.3-10 .8-.7 6.5-3.8 12.5-6.9 6.1-3.1 17.9-9.5 26.4-14.2l15.3-8.5 10.5 3.2c13.2 4 13.8 3.8 12.9-6.4-1.2-13.2-2.9-26-3.7-28.3-1.1-2.9-2.7-2.8-13.5 1l-9.1 3.1-19.9-9c-10.9-5-24.4-10.8-29.9-12.8s-10.1-3.8-10.2-3.9c-.2-.1 1-6.3 2.7-13.7 1.6-7.4 3.4-17.4 4.1-22.2.9-7.6 1.8-10 5.6-16.4 2.9-4.9 4.3-8.5 4.1-10.2-.3-2.5-.8-2.7-11.8-4.8-6.3-1.2-12.7-2.4-14.1-2.7-1.5-.3-3.4 0-4.3.7z"/></svg>