<svg version="1" xmlns="http://www.w3.org/2000/svg" width="241pt" height="241pt" viewBox="0 0 241 241"><path d="M81.6 52.7c-.8 1.6-4.2 10.2-7.6 19.3-11.1 29.3-21.1 52.6-38.9 89.8C29 174.7 24 185.5 24 186c0 .4 4.6 1.9 10.3 3.3 11.8 3 10.6 3.6 16.3-7.6L54 175h13.3c7.2 0 20.6-.6 29.7-1.4 9.1-.8 32.3-2.4 51.5-3.7l35-2.2 11.3 5.7c11.1 5.6 11.2 5.6 12.1 3.4.4-1.3 2.8-8.7 5.1-16.6 3.4-11.1 4.1-14.5 3.1-15.1-.7-.5-4.7-1.1-9-1.4l-7.8-.6-8.8-9.3c-4.9-5.1-19.5-19.8-32.4-32.5L133.5 78l-23.6-14C97 56.3 85.6 50 84.7 50c-.9 0-2.3 1.2-3.1 2.7zm26.5 39.6c9.7 6.7 53.4 48.1 52.4 49.6-.5.9-1 .9-42 5-38.3 3.9-49.5 4.6-49.5 3.3 0-1.2 15.6-40.1 21.8-54.5 3.4-7.8 5.1-10.7 6.2-10.4.9.2 5.8 3.4 11.1 7z"/></svg>