<svg version="1" xmlns="http://www.w3.org/2000/svg" width="241pt" height="241pt" viewBox="0 0 241 241"><path d="M122.5 84l-4 2.9-22.1.1H74.2l-8.1 5.2c-23.5 15.1-45.5 29.9-46.3 31-1.6 2.6-.9 5.7 1.4 6.2 5 1 58.5 6.6 79.1 8.2l8.7.7 5.2 6.3c2.8 3.5 5.2 6.4 5.2 6.4.1 0 1.6.4 3.4 1l3.4.9 7-14.5c3.9-7.9 6.9-14.6 6.7-14.8-.2-.2-12.5-2.1-27.4-4.3l-27-3.8.3-2.5c.1-1.3.4-2.5.6-2.7.1-.2 6.5-.4 14.2-.5l14-.3 4.2 3.3c4.8 3.8 4.9 3.8 24.7.1 5.5-1.1 15-2.4 21.1-3l11.1-1.1 6.2 3.1 6.1 3.1 4.8-2.3c4.6-2.4 5.1-2.4 18.1-1.5 7.4.5 14 .7 14.8.3 1.3-.4 1.4-2.7.8-14.3-.5-9.4-1.1-14.1-2.1-15.1-1.2-1.3-2.9-1-12.7 2.2l-11.4 3.6-7.7-2.5-7.8-2.4-6.1 3.2-6.2 3.3-17-1.2c-16.1-1-17.3-1.3-22.5-4.2-3-1.7-5.7-3.1-6-3-.3 0-2.3 1.3-4.5 2.9z"/></svg>