<svg version="1" xmlns="http://www.w3.org/2000/svg" width="241pt" height="241pt" viewBox="0 0 241 241"><path d="M59 47.1c-5.8 3.2-10.9 6-11.3 6.2-.6.2 9.6 29 10.9 30.5.1.2 2.6-1 5.5-2.7l5.2-2.9 4.8 1.8c28.9 11.4 56.2 32.8 76.7 60.1l7.2 9.6v26.2l-3.2-.5c-32.8-5.9-52.4-13.2-67.5-25.2l-4.3-3.3v-7c0-3.8-.4-6.9-.8-6.9-.5 0-4.7 2.7-9.3 6.1-7.1 5.1-9.3 7.4-14.1 14.9l-5.8 9 2.3 1.3c18.5 11.4 53 25.1 73.2 29.1 6.1 1.2 59.7 7.6 63.8 7.6.4 0 .5-1.5.2-3.3-.4-2.5-5.5-70.3-5.5-73.7 0-.5-5.1-2.1-11.2-3.5l-11.3-2.7-5.5-6.6c-14.7-17.5-23.2-25.1-39.9-35.5-9-5.7-27.5-15-35.1-17.7-2.8-1-4.4-2.7-8-8.8-2.5-4.1-4.9-7.7-5.5-7.8-.5-.1-5.7 2.4-11.5 5.7zm120 116.4V176h-9v-25h9v12.5z"/></svg>