<svg version="1" xmlns="http://www.w3.org/2000/svg" width="241pt" height="241pt" viewBox="0 0 241 241"><path d="M178.5 36.1c-.3.8-1.5 4.4-2.7 8-2.2 6.4-2.7 6.9-12.8 15.1-5.8 4.7-18.4 14.4-28.1 21.5l-17.5 13.1-9.5-1.9c-14.3-2.9-13.2-2.1-12.7-9.4.6-7.2 4.1-14.4 9.4-19.6l3.3-3.2 5.2 2.2c8.5 3.5 12.3 3.7 15.6 1 4.4-3.7 23.3-24 23.3-25 0-.5-10.9-.9-24.1-.9h-24.2l-4.4 3.6c-2.5 2-12.2 9.5-21.6 16.7-9.5 7.1-17.1 13.4-16.9 14.1.2.6 3.2 6.8 6.8 13.9 3.5 7 6.4 13.5 6.4 14.4 0 .9-1.6 9.1-3.6 18.2-3 13.6-5.3 20.6-12.7 39.1-4.9 12.4-9.5 22.7-10.1 22.9-2.5.9-10.6 10-10.6 11.8 0 1.5 1.4 2.6 5.1 4.3 7 2.9 27.2 11 27.7 11 .3 0 .2-4.4-.2-9.8-.6-8.7-.4-10.4 1.7-16.7 2.2-6.2 10.7-28.7 11.1-29.2.1-.1 3 .9 6.5 2.3l6.2 2.5 6.9-1.7c6.9-1.8 7-1.8 9.8.3 1.5 1.1 5.7 3.5 9.3 5.3 9.6 4.8 25.9 14.1 30.2 17.1 2.1 1.5 5.6 5.1 7.9 7.9 3.3 4.2 4.4 5 5.2 3.8 8.7-11.3 16.7-24.1 15.6-25.1-.3-.3-4.2-1-8.7-1.5-7.7-.9-9.3-1.6-27-11.2-10.3-5.6-19.1-10.4-19.4-10.8-.6-.7 5.4-32.9 6.2-33.6.2-.2 3.8-2.7 7.9-5.6 4.1-2.9 11.5-8.5 16.5-12.3 4.9-3.9 14-10.8 20.3-15.3l11.3-8.2 8-.7c4.3-.4 7.9-1.1 7.9-1.5 0-1.1-4-6-11-13.5-3-3.3-7.2-8-9.2-10.4-2.6-3-3.9-4-4.3-3zM91.2 62.7c-4.6 6.6-5.7 9.8-6.2 18.6l-.5 8.8-4.2-8.5-4.2-8.5 8.2-6.5c4.5-3.6 8.3-6.5 8.5-6.5.2-.1-.5 1.1-1.6 2.6zm15.4 42.6c.1.1-1.2 7.8-3 17.2-3.1 16.7-3.2 17-5.6 16.8-6.2-.7-7.2-1.2-6.6-4.1.3-1.5 1.7-9.2 3.2-17.1l2.7-14.3 4.5.6c2.5.3 4.6.7 4.8.9z"/></svg>