<svg version="1" xmlns="http://www.w3.org/2000/svg" width="241pt" height="241pt" viewBox="0 0 241 241"><path d="M105.5 35.7c-15.2.5-15.3.7-7.9 15.5 3.1 6.2 6.2 11.6 6.8 12 2.8 1.9 4.9.1 13.1-10.9 7.8-10.3 8.7-11.9 7.9-14.2-1.1-2.9-1.1-3-19.9-2.4zM101.4 82.7c-1.6 1.1-3.5 24.4-2.2 26 .7.8 3.5 1.3 7.3 1.3 6.3 0 6.4 0 7.3-3.3 1.6-5.1 2.4-22.4 1.1-23.2-1.7-1.1-12.3-1.7-13.5-.8zM95 132.1c-13.9 8.6-13.4 8.2-12.1 10.7.8 1.5 2.9 2.3 7.8 3.2l6.8 1.3 17.1 20.6c16.9 20.4 17.1 20.7 18.9 28.1 2.2 9.1 3.1 11 5.3 11 .9 0 5.6-4.2 10.4-9.4 6.5-7 8.6-9.8 8.2-11.3-.4-1.3-3.2-3.3-8.2-5.7-7.6-3.5-7.8-3.7-23.5-22.8l-15.8-19.3.3-6.5c.3-5.9.1-6.5-1.7-6.8-1.1-.1-7.1 2.9-13.5 6.9z"/></svg>