<svg version="1" xmlns="http://www.w3.org/2000/svg" width="241pt" height="241pt" viewBox="0 0 241 241"><path d="M92.5 49.9C79.3 64.1 78.3 65.5 74.8 74.2c-3.3 8-3.8 10.2-3.8 17.4v8.2l-3.6.6c-1.9.4-4.1.9-4.8 1.2-.8.3-7.2-5.9-15.2-14.6C34.1 72.6 33.3 71.9 30 72.2l-3.5.3-4.9 13.8c-4 11.2-4.7 14.2-3.8 16.1 1 2.2 34.9 23.6 37.5 23.6.7 0 7.1-2.5 14.2-5.5 12.6-5.4 13-5.5 14.5-3.6.8 1 10.4 11.9 21.4 24l19.8 22.2 2.7 9.2c1.9 6.7 3.1 9.3 4.4 9.5 2 .4 22.6-12.3 23.4-14.5.7-1.8-1.5-4.1-9-9.3-4.7-3.2-11.8-10.8-29.2-31.1-12.6-14.8-23.5-27.7-24.2-28.7-.9-1.4.1-3.7 6.1-14 4-6.8 7.7-12.7 8.2-13.2 1.1-1.1 80.4 110.9 87.7 123.8 7.6 13.4 7.2 13.1 13 7.5 2.6-2.6 6.3-7.5 8.2-10.8 3.4-6.1 7.1-16.3 6.2-17.1-.2-.2-4.6-.8-9.8-1.2l-9.4-.7-45.7-68.5c-40.9-61.1-46.1-68.5-48.6-68.8-2.4-.3-4.5 1.5-16.7 14.7z"/></svg>