<svg version="1" xmlns="http://www.w3.org/2000/svg" width="241pt" height="241pt" viewBox="0 0 241 241"><path d="M150.4 29.2c.3 1.3 1.2 6.8 2.1 12.4l1.5 10-5.1 24c-2.8 13.1-5.3 24.9-5.6 26.2-.3 1.3-1.2 2.6-1.9 2.9-.7.3-9.9-1-20.3-2.8l-18.9-3.3-5.3-10.8c-4.3-8.8-5.6-10.6-6.5-9.4-1.2 1.7-11.2 31.4-14.3 42.4l-2 7.4 2.7-.6c1.5-.3 7.3-2.9 12.9-5.7l10.2-5.1 10.8 2.5c5.9 1.4 15.6 3.5 21.5 4.7l10.7 2.2 1.5 4.7c2.2 6.4 6.2 26.8 7.5 37.6.9 7.3.8 10.3-.5 16-.8 3.8-1.7 8.2-2.1 9.7-.7 3.6-.8 3.6 17.4-.6 8.1-1.8 16.5-3.7 18.6-4l3.8-.7-7.7-8.5-7.7-8.6-1.8-11.2c-.9-6.2-3.1-18.2-4.9-26.6l-3.1-15.4 1.5-9.6c.9-5.2 2.2-15.6 3.1-23 2.6-23.2 3.8-28.7 7.2-32.3C179.2 50 187 38.6 187 37.2c0-.5-1-1.2-2.2-1.6-4.9-1.3-33.7-8.6-34.3-8.6-.3 0-.3 1-.1 2.2z"/><path d="M103.3 141.6L83 155.2l4.6 5.8c8.1 10.4 5.6 10.8 26.5-4.1 10.1-7.2 18.8-13.4 19.2-13.9.7-.6-8.7-15.1-9.6-15-.1 0-9.3 6.2-20.4 13.6zM55.1 165.7l-5.5.4 17.5 17.5c9.5 9.6 17.7 17.4 18.1 17.4 1 0 1-11.1.1-25.3l-.6-10.7-12.1.2c-6.7.1-14.5.3-17.5.5zM79 178.1v6l-6.5-5.7c-3.6-3.2-6.5-5.9-6.5-6.1 0-.2 2.9-.3 6.5-.3H79v6.1z"/></svg>