<svg version="1" xmlns="http://www.w3.org/2000/svg" width="241pt" height="241pt" viewBox="0 0 241 241"><path d="M132.5 37.2c-.2.7-.6 4.7-1 8.8-1.3 16.1-4 36-5.5 40-.5 1.4-1.2 5-1.5 8-1 9-5.2 21.1-9.6 27.8-6.6 10-20.1 18.9-37 24.3-13.8 4.4-12.9 5-12.9-8.9v-11.8l10.4-9 10.3-9-25.1-1.8c-13.8-1-26.1-1.7-27.3-1.5-2.1.4-1.8 1 4.2 10.3l6.5 9.8-.1 13.2c0 11.4-1.1 21.6-3.3 32.1-.4 1.6-2.7 10.1-5.1 18.7C33 196.9 31 204.4 31 205c0 .6 7 1 20.4 1h20.5l-.5-4.3c-.2-2.4-1.5-9.9-2.9-16.7-1.4-6.8-2.4-12.5-2.2-12.6.1-.2 3.2-.8 6.9-1.4 8.4-1.3 18.9-4.5 25.1-7.6 2.6-1.4 4.7-2.1 4.7-1.7 0 .5.4.3.8-.3.7-1.1 10.3-7.8 11.2-7.9.3 0 2.9-2.7 5.8-6 3-3.3 6-6.4 6.8-6.8.8-.4 1.4-1.2 1.4-1.7s1.3-2.8 2.9-5.2c9.4-13.9 16.9-39.7 18.7-64.1l.7-9.7h31.6l1 3.7c2.9 10.6 3.3 14.5 2 15.4-.8.5-5.8 3.7-11.2 7-5.4 3.3-9.7 6.4-9.5 6.9.2.4 3.7 6.9 7.8 14.4 6.8 12.3 7.7 13.6 10 13.4 2.2-.3 2.9-1.4 5.9-10.6l3.4-10.4 7.5-6c4.2-3.3 8.1-6.2 8.8-6.5 1.7-.6 0-13.9-4.9-37.3l-2.2-10.5-26-.7c-14.3-.3-28.9-1.1-32.5-1.7-8.5-1.4-10-1.4-10.5.1z"/></svg>