<svg version="1" xmlns="http://www.w3.org/2000/svg" width="241pt" height="241pt" viewBox="0 0 241 241"><path d="M102 45.2c-8.5 5-24.9 14.5-36.5 21.1C45.6 77.7 34 84.8 34 85.7c0 .8 8.5 9.5 11.1 11.4l2.8 2 9.3-4.7C95.3 75.3 144 46.9 144 43.9c0-1.1-22-8-25.2-7.9-.7.1-8.3 4.2-16.8 9.2zM81.8 86.2c-7.6 4-13.8 7.6-13.8 8 0 .5 2.1 2.3 4.7 4.1 12.7 8.8 21.3 15.9 31.5 26.1 12 12 41.3 43.4 46.6 49.9l3.2 4v13.8c0 7.7.3 13.9.7 13.9 1 0 18.3-13.3 28.9-22.2 9.9-8.3 22.4-20.5 22.4-21.9 0-1.7-16-5.8-25.2-6.5-9.3-.7-9.3-.7-17-6.1-4.2-3.1-12.1-10.1-17.5-15.7-19.3-19.7-32-33.2-41.3-43.9-5.1-5.9-9.4-10.7-9.4-10.7-.1 0-6.3 3.3-13.8 7.2zm102.5 83.6c-1.8 1.5-6.6 5.5-10.7 9l-7.6 6.3v-3.8c0-2.1.3-6.2.6-9.1l.7-5.2h10.1l10.1.1-3.2 2.7z"/></svg>