<svg version="1" xmlns="http://www.w3.org/2000/svg" width="241pt" height="241pt" viewBox="0 0 241 241"><path d="M85 30c0 .3-1.8 13.1-3.9 28.5-2.2 15.4-5.6 41.9-7.7 58.8-3.2 26.6-3.5 31-2.3 32.2.9.9 7 2 17.7 3.2l16.3 1.7 5.7 7.1c3.2 3.8 9.6 11.9 14.2 17.9l8.4 11 1.2 10.3c.6 5.7 1.4 10.6 1.7 10.9.6.6 33.5-26.6 33.6-27.8.1-.3-4.8-2.3-10.9-4.3-12.4-4.1-11.4-3.2-30.1-27-16.2-20.5-14.5-16.4-26.3-61-15.3-58.1-15.8-59.9-16.8-61-.4-.5-.8-.7-.8-.5zm11.5 87.2l5.2 21.9-5.6-.6c-12-1.3-12.1-1.3-11.6-4.3.3-1.5 1.4-9.9 2.5-18.7 2.6-20.6 3.3-24.5 3.8-22.1.2 1 2.8 11.7 5.7 23.8z"/><path d="M122 94.7c-4.7 1.9-8.6 3.6-8.7 3.7-.4.3 15.9 42 16.8 43 .7.8 16.9-6.1 16.9-7.3 0-.7-15.8-42.2-16.2-42.6-.2-.2-4.1 1.2-8.8 3.2z"/></svg>