<svg version="1" xmlns="http://www.w3.org/2000/svg" width="241pt" height="241pt" viewBox="0 0 241 241"><path d="M47.4 47.4c-.3.8.4 6.3 1.5 12.3 1.1 5.9 1.8 12.6 1.5 14.8-.2 2.2-1.5 12.8-2.9 23.5s-3.6 29.6-5 42c-1.4 12.4-3.4 29.2-4.5 37.3-2.1 16-1.8 18.7 2.3 18.7 1.2 0 8.8-2.2 16.8-5 15.2-5.1 21.6-6.5 35.9-7.5 4.7-.4 18.9-1.9 31.5-3.5 12.7-1.6 29.2-3.5 36.7-4.2l13.8-1.2 12.7 4.1c14.9 4.8 17 4.6 15.8-1.5-.4-2.1-2.2-11.7-3.9-21.5-2-11.1-3.7-18.2-4.6-18.7-2-1.2-5.1.3-14.4 6.9-5.3 3.7-9.7 6.1-12.2 6.5-2.1.3-18.7 2-36.9 3.6-18.1 1.7-39.9 3.7-48.4 4.6-8.4.8-15.5 1.3-15.8 1.1-.2-.3.5-8.7 1.6-18.8 1.1-10.1 3.2-29.4 4.6-42.9 2.4-22.3 2.8-24.7 4.8-26.4C85 66 92 58.8 92 57.6c0-2.4-2.2-3.3-13.5-5.5-6-1.3-14.4-3.1-18.7-4.2-9.1-2.3-11.7-2.4-12.4-.5z"/><path d="M129.6 76.8c-.4.7-3.2 21.6-5 37.3-.5 4.5.8 6.9 3.7 6.9 2.8 0 42.4-13.5 44.3-15.1 3-2.5 1.5-4.7-6.8-9.9-17.2-10.6-33.3-20-34.5-20-.6 0-1.4.4-1.7.8zm16.9 21.3c4.2 2.3 7.5 4.3 7.3 4.4-.6.6-16.2 4.4-16.6 4-.5-.4.8-12.5 1.3-12.5.2 0 3.8 1.9 8 4.1z"/></svg>