<svg version="1" xmlns="http://www.w3.org/2000/svg" width="241pt" height="241pt" viewBox="0 0 241 241"><path d="M134 83.2l-23.5 9L88 94.5l-22.5 2.2L46 106.9c-10.7 5.6-20.1 10.8-20.9 11.6-1.3 1.2-1 2.1 1.8 6.7 1.8 2.9 6.9 10.1 11.4 16l8.1 10.7 6.5 1.5c3.6.9 14.3 2.9 23.6 4.6 16.8 2.9 22.9 4 47.7 8.2l12.8 2.2 24-4 24.1-3.9 6.8-11c18.6-29.8 24.1-39 24.1-40 0-.9-14.7-23.2-21.9-33.2-1.5-2.2-2.2-2.2-19.1-2.2h-17.5L134 83.2zm59.5 14.5l8.3 11.8-2.1 3.5c-8.9 14.7-14.2 22.9-14.4 22.2-.4-1.8-1-50.2-.6-49.8.3.2 4.2 5.8 8.8 12.3zm-19.4 1c.2 4.9.2 17.1-.1 27.2l-.5 18.4-17.5 3.9-17.5 3.8-33-5.4c-18.1-3-35.2-5.7-38-6.1-9.6-1.1-10.1-1.4-14.9-7.5-3.2-4.1-4.6-6.8-4.6-9 0-2.9.5-3.3 10.5-8.2l10.5-5.1 15.7-.8c8.7-.4 20.4-.8 26-.9 9.9 0 10.6-.1 20.4-4.5 15.6-6.9 36.4-14.2 41-14.4 1.4-.1 1.7 1.4 2 8.6z"/></svg>