<svg version="1" xmlns="http://www.w3.org/2000/svg" width="241pt" height="241pt" viewBox="0 0 241 241"><path d="M126 35.8c0 .4 1.6 4.8 3.6 9.8l3.7 8.9-.7 23.3-.7 23.3 13.1 13.8 13.1 13.9 3.6-1c1.9-.5 3.7-.7 3.9-.5.6.6-4.4 19.9-5.4 20.9-.4.3-4.9 2.3-10 4.3-6.3 2.6-9.9 4.6-11.5 6.7l-2.3 2.9-3.8-8.5c-3.9-8.7-5.4-10.5-21.1-24.6-3.9-3.4-6-6.6-9-13.3-3.5-7.8-4.2-8.7-6.6-8.7-2.4 0-3.4 1.3-9.3 11.6-3.6 6.4-6.6 12-6.6 12.3 0 .7 4.5 4.3 21.9 17.4 8.3 6.3 8.4 6.4 11.7 15.2 1.8 4.9 3.1 9.1 2.8 9.4-.9.9-13.9 2-34 2.7l-20.2.7-8.2-4.7c-4.5-2.6-8.3-4.6-8.4-4.4-.5.5-1.6 39.8-1.2 39.8.2 0 3.7-2.7 7.6-6l7.2-6h25.1c13.9-.1 32-.1 40.2 0l15 .1 3-5.8c4-7.8 9.1-13.2 14.5-15.6 2.5-1.1 7.9-4.4 12.1-7.3l7.7-5.4 4-11.2c5.9-16.8 15.2-45.7 15.2-47.4 0-2.7-3.1-2.7-17.7.1l-14.5 2.8-6.1-6.1-6-6.1.9-18.3.9-18.3 4.8-7.8c2.6-4.3 4.7-7.9 4.7-8.1 0-.7-5-1.6-20.6-3.6-8.7-1.1-16-2-16.1-2-.2 0-.3.4-.3.8z"/></svg>