<svg version="1" xmlns="http://www.w3.org/2000/svg" width="241pt" height="241pt" viewBox="0 0 241 241"><path d="M178.2 79c-2.4 2.8-7.9 7.1-13 10.1-4.8 2.9-11.9 7.4-15.9 10.1-4 2.6-7.5 4.8-7.8 4.8-.3 0-3.3 1.8-6.5 4s-6.2 4-6.5 4c-.4 0-6.7-2.2-14-5-7.4-2.7-18.1-6.6-24-8.6l-10.6-3.7-4.5 3.3-4.5 3.2-11.7-1.8-11.7-1.7-12.2 12.9L23 123.4l6.2 6.3c9.2 9.3 10.7 8.9 18.8-5.7 2.9-5.2 5.4-9.6 5.5-9.8.2-.2 8.3 1.2 18.1 3.1 9.9 1.9 25.6 5 35.1 6.8l17.2 3.2 3.5 11.1c2 6.1 3.6 11.4 3.6 11.7 0 .4-3.3-.1-7.2-1.1-4-1.1-13.8-2.6-21.8-3.4-27.9-3-44.6-4.7-53.1-5.3l-8.5-.6-3 3.9c-1.7 2.2-5.4 7.4-8.3 11.7-4.4 6.5-6 8.1-11 10.7-3.2 1.6-6.1 3.6-6.4 4.4-.8 1.9 16.9 14.8 19.7 14.4 1.3-.2 2.5-2 3.7-5.7 1.1-3 4.4-8.8 7.5-13 3.2-4.2 5.8-7.7 5.9-7.8.1-.2 3.7.2 8.1.7 4.3.5 17.6 1.9 29.4 3 35.4 3.3 39.7 4.4 54.4 14.4 3.9 2.6 7.5 4.5 8 4.3.6-.3 5.5-3.5 10.9-7.1 6-4.2 9.7-7.4 9.7-8.4 0-1.3-2.4-2.8-8.2-5.3l-8.2-3.4-4.9-15c-2.6-8.2-4.5-15.5-4.3-16.2.3-.7 2.6-2.5 5.2-4.1 2.6-1.5 10.9-6.6 18.6-11.4l14-8.8 5.8 1.5c8.5 2.2 9.1 2.1 8.3-1.8-2.2-11.6-9.2-26.9-12.2-26.7-.3.1-2.5 2.3-4.9 5zM201.4 139.4c-.4 1.1 2.5 16.3 4.2 21.8.3 1 1.3 1.8 2.2 1.8 2.3 0 17.4-18.5 17-20.8-.3-1.7-2.2-2.1-17.1-3.5-4.2-.4-6-.2-6.3.7z"/></svg>