<svg version="1" xmlns="http://www.w3.org/2000/svg" width="241pt" height="241pt" viewBox="0 0 241 241"><path d="M205.4 40.7c-1.7 1-7.7 5-13.5 8.9-15.8 10.7-25.3 15.8-37.4 20l-11 3.9-25-.1c-17.8 0-28.3-.5-36.4-1.7-6.2-.9-11.5-1.8-11.7-2-.2-.1-.6-4-1-8.5l-.7-8.2h-3.1c-6.8 0-36 3-36.7 3.7-.7.8-3.9 18.5-3.9 21.5 0 .9 6.1 6.6 13.6 12.8l13.6 11.2 5.9-5.8 5.8-5.8 17.3 2.8c15.3 2.5 20 2.9 40.8 2.9l23.5.1 18.5-8.1c10.2-4.5 18.6-8 18.7-7.9.2.2-2.4 12.8-5.7 28.2-3.4 15.3-6.3 29.1-6.7 30.6l-.5 2.7-3.5-1.9c-5.3-2.8-6.3-1.9-6.3 6.1 0 6.4 3.4 46.7 4.6 53.7.4 2.8.7 3.1 2.4 2.2 3-1.6 27-25.1 27-26.4 0-.6-2.2-3.9-4.9-7.4l-4.9-6.3 2-9.2c3.6-17 15.8-64 22.4-86.5 3.6-12.2 6.4-23.2 6.2-24.5-.4-2.9-5.2-3.4-9.4-1zM53 75.5L51.9 81l-6-4.6c-3.2-2.6-5.7-5-5.3-5.3.9-1 12.9-2.7 13.2-1.9.2.4-.2 3.2-.8 6.3z"/></svg>