<svg version="1" xmlns="http://www.w3.org/2000/svg" width="241pt" height="241pt" viewBox="0 0 241 241"><path d="M40.6 71.6c-.4 9.2-.5 16.8-.3 17.1.3.2 8.3-.5 18-1.6 9.6-1.2 18.3-2.1 19.4-2.1 1 0 8.4 5 16.3 11.1 8 6.1 15.2 11.6 16.1 12.3 1.6 1 1.4 2.8-2.1 21.1-2.1 11-5.5 27.6-7.5 36.9l-3.8 16.9 2.3 1.9c1.2 1 2.8 1.8 3.5 1.8.8 0 10.7-2.2 22.2-4.9 28.9-6.9 64-14.8 69-15.6 3.6-.6 4.3-1.1 5.3-3.9.9-2.7.7-4.1-.9-8-6.7-15.4-11.1-36.1-11.1-51.7 0-5.7-.4-9-1.2-9.7-.9-.7-3.8-.6-9.3.4-10.9 1.9-34 5.4-37.9 5.6-2.5.2-7.8-3-29.1-17.6l-26-17.8-20.3-4.4C52 57 42.5 55 42.1 55c-.5 0-1.1 7.5-1.5 16.6zm129.9 47.1c.4 3.2 1.7 11.3 3.1 17.9 1.3 6.7 2.4 12.5 2.4 13.1 0 .5-4.8 1.9-10.7 3.1-6 1.3-18.5 4-27.8 6l-17.1 3.8 3.3-22.5c1.8-12.5 3.3-22.7 3.3-22.9 0-.1 2.4-.2 5.3-.3 2.8 0 11.1-.9 18.2-1.9 20.6-2.8 19.2-3 20 3.7z"/></svg>