<svg version="1" xmlns="http://www.w3.org/2000/svg" width="241pt" height="241pt" viewBox="0 0 241 241"><path d="M201 84.9l-6.6 4.8-58.9 5.2c-32.5 2.9-67 6.4-76.9 7.9l-17.8 2.6-7.7-2.7c-4.2-1.5-9.1-2.7-10.8-2.7H19v9.7c0 7.8.5 11.3 2.7 17.9 3.5 10.9 4.6 11.2 13.5 3.3l6.7-6 27.8-2.4c15.2-1.4 28.4-2.5 29.3-2.5.9 0 3.7 1.5 6.1 3.4 6 4.6 31.5 15.8 48 21.2 10.9 3.5 16.8 4.8 29.7 6.3 15.1 1.8 16.5 2.1 25.7 6.5 5.4 2.5 9.9 4.6 10 4.6.2 0 .6-3.9.9-8.8.4-4.8.9-11 1.2-13.8l.6-5.1-24.3-1.2-24.2-1.2-9.6-3.9c-11.1-4.4-23-11-23.1-12.7 0-1.5 7.4-2.1 36.5-2.8 19.9-.5 25.3-.3 31.8 1 4.3.9 8.4 1.4 9.1 1.2 2.5-1 2.4-6.1-.1-19.5-2.3-12.1-2.8-13.4-5-14.3-3.8-1.4-4.4-1.2-11.3 4z"/></svg>