<svg version="1" xmlns="http://www.w3.org/2000/svg" width="241pt" height="241pt" viewBox="0 0 241 241"><path d="M116.6 45c-5.6 10.1-6.1 11.5-5 14.4.5 1.4 2.8 1.6 15 1.6 14.1 0 14.5 0 15.5-2.3.9-2.1.2-3.6-6.6-13-6.7-9.2-8.1-10.7-10.5-10.7-2.5 0-3.4 1.1-8.4 10zM59.4 75.4c-.7 2.8-.7 2.7 5.6 11.6l4.7 6.5 1.6 15c1 8.2 2 18.9 2.4 23.7.6 9.5.8 8.8-7.9 31.6-3.8 9.8-3.9 10.4-2.4 12.7 2.8 4.3 27.7 29.4 29.7 30 1.4.5 3.5-.7 7.7-4.3l5.7-4.9 21.5-.7c17.1-.5 21.7-.9 22.9-2.1.9-.8 5.2-14 9.8-29.2l8.2-27.6 6-6.1c4.4-4.4 6.1-6.9 6.1-8.8 0-2.5-.6-2.9-13.1-6.8-7.2-2.3-13.7-3.9-14.4-3.6-.9.3-1.4 3.9-1.7 12.3-.4 11.5-.6 12.4-7.1 32l-6.8 20.1-14.2.4c-7.8.2-15.1.1-16.3-.3-1.6-.6-3.3-4-7.2-14.6-4.9-13.1-5.3-15.1-8.7-40.4l-3.7-26.6 4.6-9.2c6.8-13.3 7-13.1-14.9-13.1H60l-.6 2.4z"/></svg>