<svg version="1" xmlns="http://www.w3.org/2000/svg" width="241pt" height="241pt" viewBox="0 0 241 241"><path d="M199 79.1c-4.7 3.9-12.3 6.9-17.4 6.9h-4.8l.7 5.7c.4 3.1.9 6.1 1.1 6.8.3.6-1.7 1.8-4.7 2.7l-5.1 1.7.7-2.2c1.4-4.9 1.4-4.9-9.5-7.3-5.8-1.3-11.5-2.6-12.6-2.9-1.8-.4-2.4.3-3.9 4.3-1 2.6-2.1 5.1-2.6 5.6-.4.5-5.7-1.1-11.9-3.4-6.6-2.6-11.4-3.9-12-3.4-.5.5-4.1 6.9-8 14.1l-7.2 13.3-16.5 11.5c-9.1 6.4-17.1 11.4-17.7 11.2-1.1-.5-19.2-14.8-27.9-22l-4.8-4.1-5 5c-2.8 2.7-6.8 7.2-9 10.1-5.8 7.4-4.8 8.7 7.4 10.3l9.4 1.2 12.9 9.4c7.1 5.2 13.9 9.9 15 10.5 1.8.9 6.7-.6 30.7-9.6 22.5-8.4 28.6-11.1 29-12.7.3-1.1-.6-5.3-2.1-9.4l-2.6-7.5 2.7-2.6 2.6-2.7 13.7 5.9 13.7 5.8 17-3.8c25-5.5 22.5-4.3 28-13.4 4.3-7.3 5.1-8.1 8.5-8.7 11.3-1.9 16.8-4.2 15.9-6.6-.5-1.5-19.3-21.6-20.2-21.7-.5 0-2.1.9-3.5 2z"/></svg>