<svg version="1" xmlns="http://www.w3.org/2000/svg" width="241pt" height="241pt" viewBox="0 0 241 241"><path d="M107.9 39.6l-5.7 5.6 3.3 7.2c4 8.7 6.1 16.7 7 26.8.6 6.3.2 9.8-2 20.3-1.5 7-2.5 12.8-2.3 12.9.6.6 14.2 5.6 14.3 5.3.1-.1 1.5-6.5 3.2-14.2l3-14-1.5-13.3c-.8-7.3-1.2-13.5-.9-13.9.6-.5 26.4 4.5 27.6 5.3.1.2-2.9 6.3-6.7 13.6-4.6 8.6-7.8 16.2-9.1 21.5-2.6 10.1-2.6 11-.1 11.8 1.9.6 1.9.8-.7 4-2.6 3.2-2.7 3.2-4.2 1.4-.9-1-3-2.2-4.7-2.5-2.6-.5-3.5-.2-5 1.9l-1.9 2.5-2-2.4c-2.8-3.5-8.5-4.6-11.3-2.4-4.4 3.6-5.4 10.2-2.1 14.4 1.7 2.1 2.9 2.6 6.5 2.6 3.3 0 4.7-.5 5.6-2 1.2-1.8 1.3-1.7 2.3 1.2 1.3 4.1 3.4 5.2 7.7 4.4 2.7-.5 3.9-1.4 4.8-3.7 1.3-3 1.3-3 3.4-1.1 2.8 2.6 5.8 3.4 9.9 2.7 4.2-.8 5.7-3.6 5.7-10.3-.1-5.7-1.6-8-6.1-8.9l-3.4-.8 4-.5 4-.5 4.7-13.5c5.2-14.9 13.2-31.6 15.7-32.9.9-.5 4-1.4 6.9-2.2 2.8-.7 5.2-1.7 5.2-2.2 0-.9-5.1-18-5.5-18.5-.1-.1-3.5 1.6-7.5 3.8-8.3 4.7-6.3 4.8-30.8-.2l-15.4-3.2-2.5-5c-4.3-8.5-5.8-8.6-13.4-1z"/><path d="M90 139.7c-4.6 6.3-9.9 13.6-11.6 16.2l-3.3 4.8-7.1.5c-3.9.3-7.3.8-7.7 1.2-.7.6 3.5 17.6 4.6 18.9.4.4 3.4-.3 6.7-1.5l5.9-2.1 30.5 7.8 30.5 7.8 2.9 5.8c1.6 3.3 3.4 5.9 4 5.9.6 0 4.5-1.9 8.6-4.3 9.5-5.4 9.9-7.1 3.7-14.8l-4.4-5.4-1.7-17c-.9-9.4-1.9-18.7-2.2-20.8l-.6-3.7h-18.1l.7 7.2c.4 4 1.4 12 2.2 17.6.9 5.7 1.4 10.5 1.2 10.7-.3.3-38.6-8.9-41.6-10-.8-.3 2-4.4 7.7-11.2 5-6 9.1-11.3 9.1-11.8 0-1-9.8-12.9-10.9-13.2-.3-.1-4.4 5-9.1 11.4z"/></svg>