<svg version="1" xmlns="http://www.w3.org/2000/svg" width="241pt" height="241pt" viewBox="0 0 241 241"><path d="M170.3 62.6c-.7.3-10.7 10.9-22.4 23.5-11.6 12.6-21.6 22.9-22.3 22.9-.6 0-14.8-6.8-31.5-15-16.6-8.3-30.6-15-31-15-.4 0-3 2-5.9 4.4l-5.1 4.4-14.6-.5-14.5-.6v2.9c0 4 4.1 23.6 5.3 25.2 1.7 2.1 3.8 1.3 9.2-3.7 4.6-4.1 6.1-4.9 10.7-5.4 9.3-1.2 10.3-.9 36.2 10 22.3 9.4 25.3 10.9 24.3 12.3-.6 1.1-13.1 5.6-33.7 12.4-18.1 5.8-33 11.2-33.3 11.9-.2.6-.1 1.9.2 2.8.7 2.1 31.1 26.9 32.8 26.9.7 0 22.7-20 49-44.5 26.2-24.5 48-44.5 48.4-44.5.5 0 6.8 6.5 14.1 14.4 11.5 12.4 13.7 15.4 16.2 21.6 1.6 4 3.6 7.4 4.4 7.8 1 .3 4.3-2.4 9.9-8.4 10-10.7 11.5-12.7 10.8-14.5-.3-.8-3.6-2.9-7.3-4.6-8.8-4.2-20.4-15.5-34.5-33.6-10.2-13.1-11.9-14.5-15.4-13.1zM96 147.4c-2.7 2.7-21.4 17.6-22.1 17.6-.3 0-2.8-1.6-5.4-3.7l-4.8-3.6 16.4-5.8c9-3.1 16.6-5.7 16.9-5.8.2-.1-.2.5-1 1.3z"/></svg>