<svg version="1" xmlns="http://www.w3.org/2000/svg" width="241pt" height="241pt" viewBox="0 0 241 241"><path d="M45.5 53.1l-9 4-2.2 13.7C32.9 79.4 32.5 85 33 86.1c.5.9 12.3 8.4 26.2 16.8 24.4 14.5 25.5 15.3 30.1 21.7l4.9 6.6 5.9-10.2c3.2-5.6 5.9-10.3 5.9-10.5 0-.2-3-1.3-6.7-2.6-8.1-2.6-41.8-24.8-42.6-27.9-.3-1.3.8-3.6 3-6.5l3.4-4.5-3.7-10c-2-5.5-3.9-10-4.3-9.9-.3 0-4.7 1.8-9.6 4zM114.7 93.2c-6.3 4.1-9.7 6.9-9.7 8.1 0 1 3.2 5.8 7.1 10.7 5.4 6.9 7.6 9 9.5 9 2.8 0 2.6.6 5.5-17.8 1.6-10.4 1.8-13.6.9-14.8-.7-.7-1.8-1.4-2.4-1.4-.6 0-5.5 2.8-10.9 6.2zM128.2 117.9l-5.3 4.7 6.3 6.7 6.3 6.7 6-5.5 6-5.4-6-6c-3.3-3.4-6.4-6.1-7-6.1-.5.1-3.4 2.2-6.3 4.9zM151.9 122.7c-.5 1.6-3.2 7.1-5.9 12.4-4.1 7.9-4.7 9.9-3.7 11.1 1.1 1.4 2.4 1.2 12.2-1.7 6.1-1.9 12.6-3.4 14.6-3.4l3.7-.1 1.6 8.6 1.6 8.5-3.1 6.1c-2.4 4.8-2.8 6.3-1.7 6.9 8.4 5.5 31 17.9 32.5 17.9 1.6 0 3.3-2.1 6.8-8 2.6-4.4 4.5-8.6 4.2-9.4-.3-.7-6.1-4.3-12.9-8l-12.4-6.8.4-6.9c.3-3.8.1-9.8-.2-13.2-.7-5.7-1-6.5-3.9-8.3-2.8-1.6-27.9-8.4-31.5-8.4-.7 0-1.7 1.2-2.3 2.7z"/></svg>