<svg version="1" xmlns="http://www.w3.org/2000/svg" width="241pt" height="241pt" viewBox="0 0 241 241"><path d="M55 92.7c-3.4.6-13.9 3.6-30.6 8.9-19.2 6.1-19.1 5.4-3.5 21.6l6.4 6.7 4.6-2.3c8.2-4.2 23.4-9.3 32.6-11.1 12.8-2.5 33.4-1.6 46.2 1.9 18.7 5.2 30.4 11.5 56.4 30.4 1.6 1.2 2.7.8 9.6-4.1 7-4.9 9-5.8 19.3-8.2 8.9-2.1 32.5-10.9 34.9-13.1.5-.4-14.1-27.4-14.9-27.4-.3 0-2.5 3.4-5 7.6-2.5 4.1-5.1 8.1-5.9 8.7-.7.7-8.4 4-17 7.3l-15.6 6.2-7.5-4.1c-4.1-2.2-16.3-9.3-27-15.8l-19.5-11.7-13.4-1.1c-12.8-1-44.8-1.3-50.1-.4z"/></svg>