<svg version="1" xmlns="http://www.w3.org/2000/svg" width="241pt" height="241pt" viewBox="0 0 241 241"><path d="M81.5 45c-7 12.4-7 14.2 0 15.2 2.8.3 7.8.7 11.3.7 5.8.1 6.2 0 6.2-2.2 0-1.2-1.8-6.9-3.9-12.7-5.3-14.2-6.1-14.3-13.6-1zM148.3 83.7c-3.2 3.6-10.8 11.9-17 18.3-22.9 24.1-31.1 43-31.9 73.8l-.4 15.3-4.1 6.1c-6 8.8-5.5 9.2 10.9 9.6 16 .3 15.7.7 13.6-12.8-1.6-11.1-1.8-26.9-.4-35.8 2.7-16.6 9.2-29.9 20-41.3 6.3-6.6 6.8-7 15.4-9.4 5-1.4 9.2-2.8 9.5-3 .4-.4-3-18.4-4.5-23.6-.2-.9-1.5-2.1-2.9-2.7-2.2-1-2.8-.6-8.2 5.5z"/></svg>